<svg xmlns="http://www.w3.org/2000/svg" viewBox="0 0 185 22" width="185" height="22">
	<defs>
		<clipPath clipPathUnits="userSpaceOnUse" id="cp1">
			<path d="M-98 -63L1268 -63L1268 5647L-98 5647Z" />
		</clipPath>
	</defs>
	<style>
		tspan { white-space:pre }
		.shp0 { fill: #212121 } 
	</style>
	<g id="home-page copy 2" clip-path="url(#cp1)">
		<g id="home-page copy">
			<g id="navbar copy 2">
				<path id="logo copy" class="shp0" d="M37.5 19.7L37.5 2.87L31.93 2.87L31.93 19.7L37.5 19.7ZM61.04 19.7L61.04 2.87L56 2.87L56 11.51L49.35 2.87L44.7 2.87L44.7 19.7L49.76 19.7L49.76 11.11L56.39 19.7L61.04 19.7ZM82.31 7.27L82.31 2.87L67.16 2.87L67.16 7.27L71.94 7.27L71.94 19.7L77.51 19.7L77.51 7.27L82.31 7.27ZM102.66 7.1L102.66 2.87L88.42 2.87L88.42 19.7L102.87 19.7L102.87 15.47L93.99 15.47L93.99 13.39L101.87 13.39L101.87 9.16L93.99 9.16L93.99 7.1L102.66 7.1ZM119.46 19.7L125.75 19.7L122.43 14.23C124.16 13.17 125.1 11.35 125.1 8.9C125.1 5.06 122.48 2.87 117.92 2.87L109.78 2.87L109.78 19.7L115.35 19.7L115.35 15.33L117.44 15.33L119.46 19.7ZM115.35 11.11L115.35 7.1L117.92 7.1C119.12 7.1 119.82 7.82 119.82 9.07C119.82 10.36 119.12 11.11 117.92 11.11L115.35 11.11ZM137.55 19.7L137.55 2.87L131.98 2.87L131.98 19.7L137.55 19.7ZM153.15 2.71C147.8 2.71 143.91 6.28 143.91 11.27C143.91 16.29 147.8 19.94 153.15 19.94C158.5 19.94 162.39 16.27 162.39 11.27C162.39 6.31 158.5 2.71 153.15 2.71ZM153.22 7.34C155.14 7.34 156.68 8.99 156.68 11.3C156.68 13.6 155.14 15.31 153.22 15.31C151.3 15.31 149.62 13.6 149.62 11.3C149.62 8.99 151.28 7.34 153.22 7.34ZM178.42 19.7L184.71 19.7L181.4 14.23C183.13 13.17 184.06 11.35 184.06 8.9C184.06 5.06 181.45 2.87 176.89 2.87L168.75 2.87L168.75 19.7L174.32 19.7L174.32 15.33L176.41 15.33L178.42 19.7ZM174.32 11.11L174.32 7.1L176.89 7.1C178.09 7.1 178.78 7.82 178.78 9.07C178.78 10.36 178.09 11.11 176.89 11.11L174.32 11.11ZM0.25 10.03L0.25 0.84L9.44 0.84L9.44 10.03L0.25 10.03L0.25 10.03ZM12.06 0.84L21.25 0.84L21.25 10.03L12.06 10.03L12.06 0.84L12.06 0.84ZM12.06 21.84L12.06 12.66L21.25 12.66L21.25 21.84L12.06 21.84L12.06 21.84ZM0.25 21.84L0.25 12.66L9.44 12.66L9.44 21.84L0.25 21.84L0.25 21.84Z" />
			</g>
		</g>
	</g>
</svg>