<svg xmlns="http://www.w3.org/2000/svg" viewBox="0 0 23 23" width="23" height="23">
	<defs>
		<clipPath clipPathUnits="userSpaceOnUse" id="cp1">
			<path d="M-1176 -63L190 -63L190 5647L-1176 5647Z" />
		</clipPath>
	</defs>
	<style>
		tspan { white-space:pre }
		.shp0 { fill: #000000 } 
	</style>
	<g id="home-page copy 2" clip-path="url(#cp1)">
		<g id="home-page copy">
			<g id="navbar copy 2">
				<path id="search copy" class="shp0" d="M9.55 0.5C8.33 0.5 7.16 0.74 6.04 1.23C4.93 1.7 3.97 2.33 3.18 3.13C2.38 3.94 1.74 4.9 1.25 6.01C0.79 7.12 0.55 8.28 0.55 9.5C0.55 10.72 0.79 11.88 1.25 12.99C1.74 14.1 2.38 15.06 3.18 15.88C3.97 16.67 4.93 17.31 6.04 17.8C7.16 18.27 8.33 18.5 9.55 18.5C10.6 18.5 11.6 18.33 12.55 17.98C13.5 17.64 14.37 17.16 15.15 16.53L20.82 22.2C21.03 22.41 21.27 22.51 21.55 22.51C21.83 22.51 22.07 22.41 22.25 22.2C22.44 22.02 22.54 21.78 22.54 21.5C22.54 21.22 22.44 20.98 22.25 20.8L16.58 15.12C17.21 14.34 17.69 13.47 18.04 12.5C18.38 11.55 18.55 10.55 18.55 9.5C18.55 8.28 18.31 7.12 17.82 6.01C17.36 4.9 16.71 3.94 15.9 3.13C15.11 2.33 14.15 1.7 13.04 1.23C11.93 0.74 10.77 0.5 9.55 0.5L9.55 0.5ZM9.55 2.49C10.49 2.49 11.39 2.68 12.27 3.05C13.13 3.43 13.87 3.93 14.5 4.55C15.12 5.18 15.62 5.92 16 6.78C16.36 7.64 16.54 8.55 16.54 9.5C16.54 10.45 16.36 11.36 16 12.22C15.62 13.08 15.12 13.82 14.5 14.45C13.87 15.07 13.13 15.57 12.27 15.95C11.39 16.32 10.49 16.51 9.55 16.51C8.6 16.51 7.69 16.32 6.83 15.95C5.96 15.57 5.21 15.07 4.58 14.45C3.96 13.82 3.46 13.08 3.11 12.22C2.73 11.36 2.54 10.45 2.54 9.5C2.54 8.55 2.73 7.64 3.11 6.78C3.46 5.92 3.96 5.18 4.58 4.55C5.21 3.93 5.96 3.43 6.83 3.05C7.69 2.68 8.6 2.49 9.55 2.49L9.55 2.49Z" />
			</g>
		</g>
	</g>
</svg>